# xmcd CD database file
#
# Track frame offsets:
#	150
#	11297
#	23637
#	36720
#	48377
#	60215
#	70367
#	81645
#	91580
#	102575
#	114042
#	125490
#	139460
#	149297
#	161342
#	173487
#
# Disc length: 2505 seconds
#
# Revision: 3
# Processed by: cddbd v1.5.2PL0 Copyright (c) Steve Scherf et al.
# Submitted via: CDex 1.70beta2
#
DISCID=d009c710
DTITLE=Eddy Arnold - RCA Country Legends
DYEAR=2000
DGENRE=Country
TTITLE0=It's a Sin - (1946)
TTITLE1=I'll Hold You In My Heart (Till I Can Hold You In My Arms) - (1947)
TTITLE2=Anytime - (1947)
TTITLE3=Bouquet of Roses - (1947)
TTITLE4=Don't Rob Another Man's Castle - (1948)
TTITLE5=There's Been a Change In Me - (1950)
TTITLE6=A Full Time Job - (1952)
TTITLE7=I Wanna Play House With You - (1951)
TTITLE8=I'm Gonna Lock My Heart (and Throw Away the Key) - (1952)
TTITLE9=Cattle Call - (1955)
TTITLE10=That Do Make It Nice - (1955)
TTITLE11=Tennessee Stud - (1959)
TTITLE12=What's He Doing In My World - (1965)
TTITLE13=Make the World Go Away - (1965)
TTITLE14=I Want to Go With You - (1965)
TTITLE15=Let's Get It While the Gettin's Good - (1979)
EXTD=YEAR: 2000
EXTT0=
EXTT1=
EXTT2=
EXTT3=
EXTT4=
EXTT5=
EXTT6=
EXTT7=
EXTT8=
EXTT9=
EXTT10=
EXTT11=
EXTT12=
EXTT13=
EXTT14=
EXTT15=
PLAYORDER=
